M48
; DRILL file {KiCad 9.0.7} date 2026-03-13T20:51:20-0400
; FORMAT={-:-/ absolute / metric / decimal}
; #@! TF.CreationDate,2026-03-13T20:51:20-04:00
; #@! TF.GenerationSoftware,Kicad,Pcbnew,9.0.7
; #@! TF.FileFunction,Plated,1,2,PTH
FMAT,2
METRIC
; #@! TA.AperFunction,Plated,PTH,ViaDrill
T1C0.300
; #@! TA.AperFunction,Plated,PTH,ComponentDrill
T2C0.800
; #@! TA.AperFunction,Plated,PTH,ComponentDrill
T3C0.810
; #@! TA.AperFunction,Plated,PTH,ComponentDrill
T4C1.000
; #@! TA.AperFunction,Plated,PTH,ComponentDrill
T5C1.100
; #@! TA.AperFunction,Plated,PTH,ComponentDrill
T6C2.200
%
G90
G05
T1
X137.16Y-142.24
T2
X88.138Y-137.16
X93.472Y-154.94
X95.758Y-137.16
X101.092Y-154.94
X103.164Y-128.524
X104.648Y-133.604
X104.648Y-138.604
X106.72Y-154.432
X108.164Y-128.524
X111.511Y-128.778
X111.511Y-131.318
X111.511Y-133.858
X111.511Y-136.398
X111.72Y-154.432
X116.84Y-154.94
X119.131Y-128.778
X119.131Y-131.318
X119.131Y-133.858
X119.131Y-136.398
X119.38Y-121.92
X121.38Y-121.92
X122.428Y-139.192
X124.46Y-154.94
X130.048Y-139.192
X142.24Y-116.84
X143.764Y-134.152
X143.764Y-139.152
X144.74Y-116.84
T3
X94.996Y-144.404
X94.996Y-148.214
X105.156Y-145.044
X105.156Y-147.574
X111.76Y-144.404
X111.76Y-148.214
X121.92Y-145.044
X121.92Y-147.574
T4
X88.9Y-144.78
X88.9Y-147.32
X88.9Y-149.86
X88.9Y-152.4
X88.9Y-154.94
X125.476Y-126.492
X125.476Y-129.032
X125.476Y-131.572
X132.12Y-143.81
X134.62Y-143.81
X135.128Y-128.016
X135.128Y-130.556
X135.128Y-136.901
X135.128Y-139.441
X137.12Y-143.81
X144.78Y-144.78
X144.78Y-147.32
X144.78Y-149.86
X144.78Y-152.4
X144.78Y-154.94
T5
X88.392Y-66.04
X88.392Y-68.58
X88.392Y-71.12
X88.392Y-73.66
X88.392Y-76.2
X88.392Y-78.74
X88.392Y-81.28
X88.392Y-83.82
X88.392Y-86.36
X88.392Y-88.9
X88.392Y-91.44
X88.392Y-93.98
X88.392Y-96.52
X88.392Y-99.06
X88.392Y-101.6
X88.392Y-104.14
X88.392Y-106.68
X88.392Y-109.22
X88.392Y-111.76
X88.392Y-114.3
X90.932Y-66.04
X90.932Y-68.58
X90.932Y-71.12
X90.932Y-73.66
X90.932Y-76.2
X90.932Y-78.74
X90.932Y-81.28
X90.932Y-83.82
X90.932Y-86.36
X90.932Y-88.9
X90.932Y-91.44
X90.932Y-93.98
X90.932Y-96.52
X90.932Y-99.06
X90.932Y-101.6
X90.932Y-104.14
X90.932Y-106.68
X90.932Y-109.22
X90.932Y-111.76
X90.932Y-114.3
X93.472Y-66.04
X93.472Y-68.58
X93.472Y-71.12
X93.472Y-73.66
X93.472Y-76.2
X93.472Y-78.74
X93.472Y-81.28
X93.472Y-83.82
X93.472Y-86.36
X93.472Y-88.9
X93.472Y-91.44
X93.472Y-93.98
X93.472Y-96.52
X93.472Y-99.06
X93.472Y-101.6
X93.472Y-104.14
X93.472Y-106.68
X93.472Y-109.22
X93.472Y-111.76
X93.472Y-114.3
X96.012Y-66.04
X96.012Y-68.58
X96.012Y-71.12
X96.012Y-73.66
X96.012Y-76.2
X96.012Y-78.74
X96.012Y-81.28
X96.012Y-83.82
X96.012Y-86.36
X96.012Y-88.9
X96.012Y-91.44
X96.012Y-93.98
X96.012Y-96.52
X96.012Y-99.06
X96.012Y-101.6
X96.012Y-104.14
X96.012Y-106.68
X96.012Y-109.22
X96.012Y-111.76
X96.012Y-114.3
X98.552Y-66.04
X98.552Y-68.58
X98.552Y-71.12
X98.552Y-73.66
X98.552Y-76.2
X98.552Y-78.74
X98.552Y-81.28
X98.552Y-83.82
X98.552Y-86.36
X98.552Y-88.9
X98.552Y-91.44
X98.552Y-93.98
X98.552Y-96.52
X98.552Y-99.06
X98.552Y-101.6
X98.552Y-104.14
X98.552Y-106.68
X98.552Y-109.22
X98.552Y-111.76
X98.552Y-114.3
X101.092Y-66.04
X101.092Y-68.58
X101.092Y-71.12
X101.092Y-73.66
X101.092Y-76.2
X101.092Y-78.74
X101.092Y-81.28
X101.092Y-83.82
X101.092Y-86.36
X101.092Y-88.9
X101.092Y-91.44
X101.092Y-93.98
X101.092Y-96.52
X101.092Y-99.06
X101.092Y-101.6
X101.092Y-104.14
X101.092Y-106.68
X101.092Y-109.22
X101.092Y-111.76
X101.092Y-114.3
X103.632Y-66.04
X103.632Y-68.58
X103.632Y-71.12
X103.632Y-73.66
X103.632Y-76.2
X103.632Y-78.74
X103.632Y-81.28
X103.632Y-83.82
X103.632Y-86.36
X103.632Y-88.9
X103.632Y-91.44
X103.632Y-93.98
X103.632Y-96.52
X103.632Y-99.06
X103.632Y-101.6
X103.632Y-104.14
X103.632Y-106.68
X103.632Y-109.22
X103.632Y-111.76
X103.632Y-114.3
X106.172Y-66.04
X106.172Y-68.58
X106.172Y-71.12
X106.172Y-73.66
X106.172Y-76.2
X106.172Y-78.74
X106.172Y-81.28
X106.172Y-83.82
X106.172Y-86.36
X106.172Y-88.9
X106.172Y-91.44
X106.172Y-93.98
X106.172Y-96.52
X106.172Y-99.06
X106.172Y-101.6
X106.172Y-104.14
X106.172Y-106.68
X106.172Y-109.22
X106.172Y-111.76
X106.172Y-114.3
X108.712Y-66.04
X108.712Y-68.58
X108.712Y-71.12
X108.712Y-73.66
X108.712Y-76.2
X108.712Y-78.74
X108.712Y-81.28
X108.712Y-83.82
X108.712Y-86.36
X108.712Y-88.9
X108.712Y-91.44
X108.712Y-93.98
X108.712Y-96.52
X108.712Y-99.06
X108.712Y-101.6
X108.712Y-104.14
X108.712Y-106.68
X108.712Y-109.22
X108.712Y-111.76
X108.712Y-114.3
X111.252Y-66.04
X111.252Y-68.58
X111.252Y-71.12
X111.252Y-73.66
X111.252Y-76.2
X111.252Y-78.74
X111.252Y-81.28
X111.252Y-83.82
X111.252Y-86.36
X111.252Y-88.9
X111.252Y-91.44
X111.252Y-93.98
X111.252Y-96.52
X111.252Y-99.06
X111.252Y-101.6
X111.252Y-104.14
X111.252Y-106.68
X111.252Y-109.22
X111.252Y-111.76
X111.252Y-114.3
X113.792Y-66.04
X113.792Y-68.58
X113.792Y-71.12
X113.792Y-73.66
X113.792Y-76.2
X113.792Y-78.74
X113.792Y-81.28
X113.792Y-83.82
X113.792Y-86.36
X113.792Y-88.9
X113.792Y-91.44
X113.792Y-93.98
X113.792Y-96.52
X113.792Y-99.06
X113.792Y-101.6
X113.792Y-104.14
X113.792Y-106.68
X113.792Y-109.22
X113.792Y-111.76
X113.792Y-114.3
X116.332Y-66.04
X116.332Y-68.58
X116.332Y-71.12
X116.332Y-73.66
X116.332Y-76.2
X116.332Y-78.74
X116.332Y-81.28
X116.332Y-83.82
X116.332Y-86.36
X116.332Y-88.9
X116.332Y-91.44
X116.332Y-93.98
X116.332Y-96.52
X116.332Y-99.06
X116.332Y-101.6
X116.332Y-104.14
X116.332Y-106.68
X116.332Y-109.22
X116.332Y-111.76
X116.332Y-114.3
X118.872Y-66.04
X118.872Y-68.58
X118.872Y-71.12
X118.872Y-73.66
X118.872Y-76.2
X118.872Y-78.74
X118.872Y-81.28
X118.872Y-83.82
X118.872Y-86.36
X118.872Y-88.9
X118.872Y-91.44
X118.872Y-93.98
X118.872Y-96.52
X118.872Y-99.06
X118.872Y-101.6
X118.872Y-104.14
X118.872Y-106.68
X118.872Y-109.22
X118.872Y-111.76
X118.872Y-114.3
X121.412Y-66.04
X121.412Y-68.58
X121.412Y-71.12
X121.412Y-73.66
X121.412Y-76.2
X121.412Y-78.74
X121.412Y-81.28
X121.412Y-83.82
X121.412Y-86.36
X121.412Y-88.9
X121.412Y-91.44
X121.412Y-93.98
X121.412Y-96.52
X121.412Y-99.06
X121.412Y-101.6
X121.412Y-104.14
X121.412Y-106.68
X121.412Y-109.22
X121.412Y-111.76
X121.412Y-114.3
X123.952Y-66.04
X123.952Y-68.58
X123.952Y-71.12
X123.952Y-73.66
X123.952Y-76.2
X123.952Y-78.74
X123.952Y-81.28
X123.952Y-83.82
X123.952Y-86.36
X123.952Y-88.9
X123.952Y-91.44
X123.952Y-93.98
X123.952Y-96.52
X123.952Y-99.06
X123.952Y-101.6
X123.952Y-104.14
X123.952Y-106.68
X123.952Y-109.22
X123.952Y-111.76
X123.952Y-114.3
X126.492Y-66.04
X126.492Y-68.58
X126.492Y-71.12
X126.492Y-73.66
X126.492Y-76.2
X126.492Y-78.74
X126.492Y-81.28
X126.492Y-83.82
X126.492Y-86.36
X126.492Y-88.9
X126.492Y-91.44
X126.492Y-93.98
X126.492Y-96.52
X126.492Y-99.06
X126.492Y-101.6
X126.492Y-104.14
X126.492Y-106.68
X126.492Y-109.22
X126.492Y-111.76
X126.492Y-114.3
X129.032Y-66.04
X129.032Y-68.58
X129.032Y-71.12
X129.032Y-73.66
X129.032Y-76.2
X129.032Y-78.74
X129.032Y-81.28
X129.032Y-83.82
X129.032Y-86.36
X129.032Y-88.9
X129.032Y-91.44
X129.032Y-93.98
X129.032Y-96.52
X129.032Y-99.06
X129.032Y-101.6
X129.032Y-104.14
X129.032Y-106.68
X129.032Y-109.22
X129.032Y-111.76
X129.032Y-114.3
X131.572Y-66.04
X131.572Y-68.58
X131.572Y-71.12
X131.572Y-73.66
X131.572Y-76.2
X131.572Y-78.74
X131.572Y-81.28
X131.572Y-83.82
X131.572Y-86.36
X131.572Y-88.9
X131.572Y-91.44
X131.572Y-93.98
X131.572Y-96.52
X131.572Y-99.06
X131.572Y-101.6
X131.572Y-104.14
X131.572Y-106.68
X131.572Y-109.22
X131.572Y-111.76
X131.572Y-114.3
X134.112Y-66.04
X134.112Y-68.58
X134.112Y-71.12
X134.112Y-73.66
X134.112Y-76.2
X134.112Y-78.74
X134.112Y-81.28
X134.112Y-83.82
X134.112Y-86.36
X134.112Y-88.9
X134.112Y-91.44
X134.112Y-93.98
X134.112Y-96.52
X134.112Y-99.06
X134.112Y-101.6
X134.112Y-104.14
X134.112Y-106.68
X134.112Y-109.22
X134.112Y-111.76
X134.112Y-114.3
X136.652Y-66.04
X136.652Y-68.58
X136.652Y-71.12
X136.652Y-73.66
X136.652Y-76.2
X136.652Y-78.74
X136.652Y-81.28
X136.652Y-83.82
X136.652Y-86.36
X136.652Y-88.9
X136.652Y-91.44
X136.652Y-93.98
X136.652Y-96.52
X136.652Y-99.06
X136.652Y-101.6
X136.652Y-104.14
X136.652Y-106.68
X136.652Y-109.22
X136.652Y-111.76
X136.652Y-114.3
T6
X130.22Y-150.81
X139.02Y-150.81
M30
